<?xml version="1.0" standalone="no"?>
<!DOCTYPE svg PUBLIC "-//W3C//DTD SVG 20010904//EN"
 "http://www.w3.org/TR/2001/REC-SVG-20010904/DTD/svg10.dtd">
<svg version="1.0" xmlns="http://www.w3.org/2000/svg"
 width="363.000000pt" height="363.000000pt" viewBox="0 0 363.000000 363.000000"
 preserveAspectRatio="xMidYMid meet">
<metadata>
Created by potrace 1.11, written by Peter Selinger 2001-2013
</metadata>
<g transform="translate(0.000000,363.000000) scale(0.100000,-0.100000)"
fill="#000000" stroke="none">
<path d="M1929 3463 c0 -16 -1 -576 -2 -1245 l-2 -1218 122 0 122 0 -1 1191 0
1191 -34 14 c-18 8 -70 32 -115 54 -45 22 -84 40 -86 40 -1 0 -3 -12 -4 -27z"/>
<path d="M1648 3397 l-118 -42 0 -177 0 -177 63 21 c34 11 88 29 120 40 l57
21 0 178 c0 99 -1 179 -2 178 -2 0 -56 -19 -120 -42z"/>
<path d="M1643 2827 l-113 -42 0 -892 0 -893 120 0 120 0 0 935 c0 514 -3 935
-7 934 -5 0 -59 -19 -120 -42z"/>
<path d="M980 2339 l-115 -48 0 -645 0 -646 120 0 120 0 0 689 c0 379 -2 691
-5 694 -3 2 -57 -18 -120 -44z"/>
<path d="M575 2172 l-110 -47 0 -135 0 -135 120 0 120 0 2 183 c2 137 -1 182
-10 181 -7 0 -61 -21 -122 -47z"/>
<path d="M2530 1580 l0 -580 120 0 120 0 0 531 0 530 -57 25 c-32 14 -82 37
-111 50 -29 13 -57 24 -62 24 -6 0 -10 -212 -10 -580z"/>
<path d="M2929 1948 c-2 -149 0 -490 3 -492 8 -7 221 -96 229 -96 5 0 9 119 9
265 l0 264 -32 15 c-68 30 -199 86 -203 86 -3 0 -5 -19 -6 -42z"/>
<path d="M3325 1410 l0 -410 122 0 122 0 0 358 1 359 -48 21 c-63 28 -190 82
-194 82 -2 0 -3 -184 -3 -410z"/>
<path d="M195 1554 c-60 -25 -114 -50 -119 -54 -7 -7 -9 -112 -6 -452 l0 -48
120 0 120 0 0 300 c0 165 -1 300 -2 300 -2 -1 -52 -21 -113 -46z"/>
<path d="M469 1388 c0 -32 0 -316 0 -355 l1 -33 113 0 112 0 0 205 0 205 -112
0 c-110 0 -113 -1 -114 -22z"/>
<path d="M122 799 c-4 -10 -6 -51 -5 -91 3 -94 -3 -118 -26 -118 -11 0 -21 5
-23 11 -5 15 -58 0 -58 -17 0 -29 39 -54 84 -54 36 0 48 5 65 26 18 23 21 41
21 139 l0 113 -26 5 c-18 3 -27 0 -32 -14z"/>
<path d="M293 812 c-23 -3 -23 -6 -23 -138 0 -74 3 -135 8 -135 4 -1 18 -2 32
-3 l25 -1 2 137 c1 143 0 147 -44 140z"/>
<path d="M441 812 c-13 -4 -16 -271 -3 -273 58 -9 57 -10 57 83 0 49 3 88 7
88 4 0 29 -38 57 -84 54 -88 58 -92 106 -91 l30 0 2 135 c0 78 -3 138 -9 141
-5 3 -20 4 -33 1 -22 -4 -23 -8 -23 -84 0 -43 -2 -81 -4 -84 -3 -2 -27 34 -54
80 -46 78 -51 84 -86 88 -20 2 -42 2 -47 0z"/>
<path d="M980 810 l-25 -6 0 -134 0 -134 30 -1 30 0 1 83 c1 46 4 85 7 88 3 3
28 -33 56 -79 54 -89 58 -93 106 -92 l30 0 2 137 c1 135 1 136 -22 140 -40 8
-46 -4 -44 -86 1 -42 0 -78 -3 -81 -2 -2 -26 32 -54 77 -51 84 -71 99 -114 88z"/>
<path d="M1378 752 c-37 -83 -88 -205 -88 -213 0 -3 14 -6 31 -5 24 1 35 9 48
32 14 27 20 30 63 29 26 -1 49 -3 51 -6 1 -2 8 -16 14 -30 8 -20 18 -26 42
-26 17 0 31 6 31 12 0 7 -25 68 -55 136 -45 104 -58 125 -80 131 -25 6 -28 3
-57 -60z m70 -72 c11 -29 10 -30 -18 -30 -28 0 -28 1 -18 35 13 39 22 38 36
-5z"/>
<path d="M1653 807 c-4 -7 -6 -92 -4 -228 1 -44 2 -45 31 -45 32 0 33 0 32 85
l0 44 25 -29 c14 -16 38 -44 53 -63 23 -27 37 -34 69 -36 45 -2 50 5 24 33
-10 11 -38 40 -61 66 l-44 46 33 38 c18 20 43 48 57 60 18 17 22 26 13 31 -28
18 -67 1 -114 -48 -27 -28 -50 -51 -52 -51 -3 0 -4 15 -3 33 2 66 -1 72 -28
72 -14 0 -28 -4 -31 -8z"/>
<path d="M2059 799 c-10 -10 -19 -23 -19 -29 0 -5 -11 -33 -24 -62 -78 -173
-78 -175 -37 -175 23 0 33 7 41 28 14 32 22 36 74 35 33 -1 42 -6 56 -31 13
-23 24 -30 48 -31 18 0 32 2 32 5 0 3 -25 65 -56 138 -60 140 -78 159 -115
122z m51 -136 c0 -7 -11 -13 -25 -13 -29 0 -28 -2 -14 40 l12 33 13 -24 c7
-13 13 -30 14 -36z"/>
<path d="M2313 809 c-9 -3 -18 -15 -20 -27 -3 -23 -1 -24 84 -24 49 0 48 -6
-8 -68 -17 -19 -42 -48 -54 -65 -26 -34 -38 -84 -21 -86 6 -1 57 -2 114 -3
l102 -2 0 32 0 31 -60 -2 c-33 -1 -62 1 -64 4 -2 3 24 41 58 84 69 86 81 127
37 128 -15 0 -54 1 -89 2 -35 1 -70 -1 -79 -4z"/>
<path d="M2703 812 c-14 -2 -29 -19 -42 -47 -12 -25 -21 -47 -21 -50 0 -2 -11
-28 -24 -57 -14 -29 -31 -69 -39 -89 l-15 -36 27 2 c47 3 51 5 51 18 0 28 20
40 65 42 43 2 49 0 66 -29 14 -23 26 -31 49 -32 30 -1 41 19 22 41 -5 6 -30
61 -57 123 -26 62 -51 114 -54 115 -3 2 -16 1 -28 -1z m10 -160 c-33 -5 -35
-1 -22 38 l12 33 18 -34 17 -34 -25 -3z"/>
<path d="M2900 803 c0 -7 6 -32 13 -55 8 -24 25 -79 38 -123 25 -86 32 -95 62
-89 24 4 19 -6 47 87 13 43 27 80 30 82 3 2 18 -36 34 -84 26 -83 29 -88 54
-86 24 1 30 9 48 63 12 34 21 62 19 62 -2 0 7 33 20 72 13 40 21 76 19 79 -1
3 -16 4 -33 1 -27 -4 -30 -9 -46 -76 -10 -39 -21 -75 -25 -79 -4 -4 -18 28
-31 72 -19 62 -29 80 -44 84 -36 6 -44 -3 -65 -69 -31 -103 -34 -104 -55 -16
-18 79 -18 80 -51 84 -23 3 -34 0 -34 -9z"/>
<path d="M3453 812 c-9 -6 -123 -261 -123 -275 0 -3 15 -4 33 -3 25 1 35 8 47
32 14 28 19 30 63 29 47 -1 66 -13 67 -42 0 -7 6 -14 13 -14 6 -1 22 -3 35 -4
12 -1 24 0 26 4 2 3 -22 64 -53 135 -55 126 -79 156 -108 138z m43 -159 c-2
-3 -15 -3 -28 -1 -24 3 -24 4 -10 38 l14 35 14 -34 c8 -19 12 -36 10 -38z"/>
<path d="M44 423 c-13 -4 -10 -263 3 -271 9 -6 79 -7 154 -3 14 1 16 10 10 52
-1 3 -25 6 -53 5 l-53 -1 -2 100 c0 55 -2 105 -2 111 -1 9 -36 14 -57 7z"/>
<path d="M382 291 c-51 -116 -57 -137 -43 -142 28 -11 46 -3 59 24 7 15 16 27
20 28 4 1 26 2 50 4 38 2 45 -1 57 -25 14 -27 54 -43 74 -30 7 4 -10 54 -48
140 -52 120 -61 134 -84 135 -24 2 -30 -9 -85 -134z m108 -18 c0 -7 -11 -13
-25 -13 -28 0 -30 8 -13 45 l12 26 13 -23 c7 -13 12 -29 13 -35z"/>
<path d="M751 420 c-13 -8 -12 -258 2 -267 6 -4 42 -6 80 -6 52 1 76 6 96 21
36 26 40 74 9 105 -22 21 -22 23 -5 40 9 9 17 28 17 42 0 24 -33 64 -54 66
-46 4 -138 4 -145 -1z m123 -63 c16 -12 17 -15 3 -29 -13 -12 -29 -15 -67 -9
-4 1 -6 12 -6 26 0 20 5 25 26 25 14 0 34 -6 44 -13z m17 -113 c11 -14 10 -18
-6 -31 -11 -7 -33 -13 -50 -11 -28 3 -34 16 -26 53 3 12 70 3 82 -11z"/>
<path d="M1149 407 c-43 -29 -62 -69 -62 -129 2 -90 72 -146 169 -135 60 6
111 46 121 95 10 50 5 102 -13 130 -41 63 -150 83 -215 39z m130 -47 c24 -12
45 -64 38 -93 -14 -55 -77 -84 -126 -57 -25 13 -45 64 -37 95 14 55 75 82 125
55z"/>
<path d="M1529 366 c-2 -144 2 -210 14 -218 30 -19 49 2 51 57 0 27 6 50 11
52 6 2 24 -22 40 -52 17 -30 35 -55 40 -56 48 -4 65 -4 65 0 0 2 -13 26 -30
53 -16 26 -30 51 -30 54 0 3 11 15 25 26 34 27 35 85 1 117 -20 18 -37 23
-105 25 l-81 4 -1 -62z m139 -8 c20 -20 -4 -48 -44 -48 -32 0 -34 2 -32 30 2
26 6 30 33 30 17 0 36 -5 43 -12z"/>
<path d="M1983 422 c-20 -12 -124 -265 -112 -272 21 -13 57 2 68 29 11 26 27
30 108 22 7 0 15 -12 19 -26 6 -24 13 -27 49 -27 8 0 19 0 24 1 5 0 -17 63
-51 139 -59 136 -73 154 -105 134z m43 -159 c-2 -3 -15 -3 -29 -1 -25 3 -25 4
-11 38 l15 35 15 -34 c8 -19 12 -36 10 -38z"/>
<path d="M2260 422 c-5 -2 -10 -15 -10 -28 0 -24 9 -28 58 -24 22 1 22 -1 22
-108 l0 -110 30 -4 c17 -3 32 -2 34 1 1 3 2 54 2 113 l-1 107 33 -3 c35 -3 53
14 45 43 -4 14 -20 17 -104 16 -54 0 -103 -1 -109 -3z"/>
<path d="M2675 420 c-76 -32 -108 -144 -61 -216 10 -14 31 -34 48 -44 42 -25
132 -23 170 5 84 61 74 206 -16 249 -36 17 -108 20 -141 6z m123 -70 c54 -51
15 -150 -59 -150 -43 0 -79 39 -79 85 0 72 86 113 138 65z"/>
<path d="M3042 416 c-10 -13 -10 -246 0 -262 8 -11 58 -7 56 5 0 3 0 28 1 54
1 61 16 59 53 -9 27 -48 53 -65 90 -56 14 3 11 12 -17 60 l-34 56 22 11 c46
23 48 101 2 131 -29 19 -161 27 -173 10z m122 -52 c9 -3 16 -14 16 -24 0 -20
-19 -30 -56 -30 -20 0 -24 5 -24 30 0 25 4 30 24 30 13 0 31 -3 40 -6z"/>
<path d="M3366 421 c-3 -4 17 -41 44 -82 45 -67 50 -79 50 -131 0 -58 8 -69
43 -60 18 4 19 10 20 77 0 31 11 56 48 112 27 40 49 76 49 81 0 5 -15 8 -32 8
-28 -1 -38 -8 -64 -50 l-32 -49 -17 29 c-10 16 -23 38 -30 48 -11 19 -70 32
-79 17z"/>
</g>
</svg>
